<svg width="24" height="25" viewBox="0 0 24 25" fill="none" xmlns="http://www.w3.org/2000/svg">
<path d="M18.984 15.6533C17.8172 14.7232 16.6332 14.1599 15.4808 15.0885L14.7927 15.6498C14.2892 16.0572 13.3531 17.9608 9.73382 14.0805C6.11531 10.2051 8.26863 9.60168 8.77286 9.19777L9.46475 8.63581C10.6111 7.70506 10.1785 6.53338 9.3517 5.32728L8.85275 4.59673C8.02217 3.39344 7.11773 2.60318 5.96834 3.53252L5.3473 4.03828C4.8393 4.38319 3.41933 5.50429 3.07489 7.63412C2.66036 10.1896 3.96803 13.116 6.96398 16.3269C9.95617 19.5392 12.8858 21.1527 15.6609 21.1246C17.9672 21.1015 19.3601 19.948 19.7957 19.5287L20.419 19.0222C21.5654 18.0936 20.8531 17.1481 19.6857 16.2159L18.984 15.6533Z" fill="white"/>
</svg>
